<svg width="320" height="320" viewBox="0 0 320 320" fill="none" xmlns="http://www.w3.org/2000/svg">
<rect x="50" y="51" width="221" height="191" rx="83" fill="white"/>
<path d="M258.011 14H61.9886C45.4583 14 32 27.4583 32 44.1349V241.913C32 258.59 45.4583 272.048 61.9886 272.048H227.877L220.123 244.985L238.848 262.393L256.549 278.777L288 306.571V44.1349C288 27.4583 274.542 14 258.011 14ZM201.545 205.049C201.545 205.049 196.279 198.759 191.89 193.2C211.054 187.787 218.368 175.792 218.368 175.792C212.37 179.742 206.665 182.521 201.545 184.423C194.231 187.495 187.209 189.543 180.334 190.713C166.29 193.346 153.417 192.615 142.446 190.567C134.107 188.958 126.939 186.617 120.942 184.277C117.577 182.96 113.92 181.351 110.263 179.303C109.824 179.01 109.385 178.864 108.946 178.571C108.654 178.425 108.507 178.279 108.361 178.133C105.728 176.67 104.265 175.646 104.265 175.646C104.265 175.646 111.287 187.349 129.865 192.907C125.477 198.466 120.064 205.049 120.064 205.049C87.7349 204.025 75.4469 182.814 75.4469 182.814C75.4469 135.71 96.512 97.5291 96.512 97.5291C117.577 81.7303 137.618 82.1691 137.618 82.1691L139.081 83.9246C112.75 91.5314 100.608 103.088 100.608 103.088C100.608 103.088 103.826 101.333 109.239 98.8457C124.891 91.9703 137.326 90.0686 142.446 89.6297C143.323 89.4834 144.055 89.3371 144.933 89.3371C153.856 88.1669 163.95 87.8743 174.482 89.0446C188.379 90.6537 203.301 94.7497 218.514 103.088C218.514 103.088 206.958 92.1166 182.089 84.5097L184.137 82.1691C184.137 82.1691 204.178 81.7303 225.243 97.5291C225.243 97.5291 246.309 135.71 246.309 182.814C246.309 182.814 233.874 204.025 201.545 205.049ZM133.522 136.734C125.184 136.734 118.601 144.048 118.601 152.971C118.601 161.895 125.33 169.209 133.522 169.209C141.861 169.209 148.443 161.895 148.443 152.971C148.59 144.048 141.861 136.734 133.522 136.734ZM186.917 136.734C178.578 136.734 171.995 144.048 171.995 152.971C171.995 161.895 178.725 169.209 186.917 169.209C195.255 169.209 201.838 161.895 201.838 152.971C201.838 144.048 195.255 136.734 186.917 136.734Z" fill="#7289DA"/>
</svg>
