<svg width="125" height="40" viewBox="0 0 719 235" fill="none" xmlns="http://www.w3.org/2000/svg">
<path d="M4 85.5V229.711L131.897 156.022L4 85.5ZM28.5626 124.492L85.6627 156.192L29.2626 189.292L28.5626 124.492Z" fill="#ED3900"/>
<path d="M131.889 146.159L131.976 45L67.9764 81V65L131.976 28V1.99999L40.6 52.7515L40.6918 96.168L68.7981 111.467L104.485 89V132L131.889 146.159Z" fill="#FF9139"/>
<path d="M28.4108 89V61L4 75L28.4108 89Z" fill="#FF9139"/>
<path d="M180 158.273V45.6095H213.531C221.042 45.6095 227.614 47.0849 233.247 49.9014C238.88 52.718 243.306 56.8759 246.391 62.2408C249.476 67.6058 250.951 73.7754 250.951 80.7499V122.865C250.951 129.839 249.476 136.009 246.391 141.374C243.306 146.739 238.88 150.897 233.247 153.847C227.614 156.798 221.042 158.273 213.531 158.273H180V158.273ZM213.397 140.435C218.896 140.435 223.322 138.825 226.675 135.606C230.028 132.387 231.638 128.096 231.638 122.865V80.7499C231.638 75.3849 230.028 71.2271 226.675 68.0081C223.322 64.9233 218.896 63.3138 213.397 63.3138H199.18V140.435H213.397Z" fill="black"/>
<path d="M342.424 120.45H290.652V126.486C290.652 138.557 296.285 144.593 307.552 144.593C311.844 144.593 315.331 143.788 317.879 142.313C320.427 140.837 322.037 138.691 322.842 135.741H342.021C340.546 142.983 336.79 148.885 330.487 153.311C324.183 157.737 316.538 159.883 307.552 159.883C300.309 159.883 294.139 158.542 288.774 155.725C283.543 152.908 279.386 149.019 276.569 144.056C273.752 139.094 272.277 133.192 272.277 126.486V105.16C272.277 98.4542 273.752 92.6869 276.569 87.5902C279.386 82.6276 283.543 78.738 288.908 75.9214C294.273 73.1048 300.443 71.7636 307.552 71.7636C314.66 71.7636 320.83 73.1048 326.061 75.9214C331.291 78.738 335.315 82.6276 338.266 87.5902C341.082 92.5528 342.558 98.4542 342.558 105.16V120.45H342.424ZM290.518 108.379L323.78 108.111V105.026C323.78 99.1248 322.439 94.5646 319.623 91.4798C316.806 88.3949 312.782 86.7854 307.283 86.7854C301.784 86.7854 297.492 88.3949 294.676 91.4798C291.859 94.5646 290.384 99.1248 290.384 105.16V108.379H290.518Z" fill="black"/>
<path d="M372.601 151.165C365.761 145.397 362.408 137.752 362.274 127.961H381.588C381.588 132.656 383.197 136.277 386.55 138.96C389.903 141.642 394.464 142.983 400.231 142.983C405.73 142.983 410.156 141.642 413.241 139.094C416.326 136.411 417.935 132.924 417.935 128.364C417.935 124.608 416.862 121.255 414.582 118.439C412.302 115.622 409.217 113.744 405.194 112.537L392.184 109.05C383.465 106.77 376.625 102.746 371.797 96.8447C366.968 90.9433 364.554 83.8347 364.554 75.519C364.554 65.9963 367.773 58.3512 374.077 52.5839C380.515 46.8166 389.099 44 399.829 44C410.558 44 419.276 46.8166 425.714 52.4498C432.152 58.083 435.371 65.5939 435.505 74.9826H416.192C416.192 70.5565 414.716 67.0693 411.9 64.5209C409.083 61.9726 404.925 60.7654 399.694 60.7654C394.598 60.7654 390.708 61.9726 388.026 64.2527C385.209 66.6669 383.868 70.02 383.868 74.3119C383.868 78.2015 384.941 81.5546 387.087 84.3712C389.233 87.1878 392.318 89.0655 396.207 90.1385L409.62 93.894C418.472 96.3082 425.312 100.332 430.006 106.099C434.835 111.867 437.115 118.975 437.115 127.559C437.115 133.997 435.64 139.63 432.555 144.459C429.47 149.287 425.178 153.177 419.545 155.859C413.912 158.542 407.474 159.883 400.097 159.883C388.562 159.749 379.442 156.932 372.601 151.165Z" fill="black"/>
<path d="M472.121 186.037L484.192 153.579L452.271 73.373H473.194L488.753 116.829C490.228 120.987 491.703 126.352 493.179 133.058C494.654 126.218 496.129 120.853 497.471 116.829L511.956 73.373H532.343L492.374 185.903H472.121V186.037Z" fill="black"/>
<path d="M612.146 80.2134C617.109 85.7124 619.657 93.2234 619.657 102.612V158.273H600.343V104.624C600.343 99.5272 599.002 95.6376 596.32 92.821C593.637 90.0044 589.882 88.529 585.053 88.529C580.225 88.529 576.469 90.0044 573.787 92.821C571.104 95.6376 569.763 99.7954 569.763 105.16V158.273H550.449V73.3731H569.227V89.602H569.495C570.3 84.1029 572.714 79.6769 576.604 76.592C580.493 73.5072 585.59 71.8977 591.894 71.8977C600.343 71.8977 607.05 74.5802 612.146 80.2134Z" fill="black"/>
<path d="M651.847 150.762C645.409 144.727 642.19 136.679 642.19 126.486V105.16C642.19 94.967 645.409 86.9195 651.847 80.884C658.285 74.8484 667.003 71.8977 677.867 71.8977C688.597 71.8977 697.046 74.7143 703.484 80.2134C709.922 85.7124 713.141 93.2234 713.544 102.612H694.23C693.962 98.1859 692.352 94.8328 689.401 92.4186C686.585 90.0044 682.695 88.7973 677.867 88.7973C672.77 88.7973 668.746 90.2726 665.796 93.0892C662.979 95.9058 661.504 99.9295 661.504 105.16V126.62C661.504 131.851 662.979 135.875 665.796 138.825C668.612 141.642 672.636 143.117 677.867 143.117C682.695 143.117 686.585 141.91 689.401 139.496C692.218 137.082 693.827 133.595 694.23 129.303H713.544C713.275 138.825 709.922 146.202 703.484 151.701C697.046 157.2 688.597 160.017 677.867 160.017C667.003 159.749 658.285 156.798 651.847 150.762Z" fill="black"/>
</svg>
