<svg width="45" height="45" viewBox="0 0 45 45" fill="none" xmlns="http://www.w3.org/2000/svg">
<path fill-rule="evenodd" clip-rule="evenodd" d="M41.0821 11.6251C41.3602 10.6883 41.0821 10 39.7588 10H35.3828C34.2701 10 33.7571 10.5946 33.4789 11.2503C33.4789 11.2503 31.2536 16.7304 28.1011 20.2901C27.0811 21.3205 26.6175 21.6483 26.0612 21.6483C25.783 21.6483 25.3657 21.3205 25.3657 20.3838V11.6251C25.3657 10.501 25.0575 10 24.1302 10H17.2536C16.5582 10 16.1401 10.5217 16.1401 11.0162C16.1401 12.0819 17.7162 12.3276 17.8787 15.3253V21.8358C17.8787 23.2632 17.6235 23.5219 17.0672 23.5219C15.5837 23.5219 11.9751 18.0174 9.83489 11.7188C9.41545 10.4945 8.99477 10 7.87638 10H3.50036C2.25007 10 2 10.5946 2 11.2503C2 12.4213 3.48357 18.2292 8.90773 25.9106C12.5238 31.1564 17.6186 34 22.2547 34C25.0363 34 25.3804 33.3684 25.3804 32.2805V28.3158C25.3804 27.0526 25.644 26.8005 26.5248 26.8005C27.1738 26.8005 28.2865 27.1284 30.8827 29.6576C33.8498 32.6552 34.339 34 36.0079 34H40.3839C41.6342 34 42.2594 33.3684 41.8987 32.122C41.5041 30.8798 40.0875 29.0775 38.2078 26.941C37.1878 25.7233 35.6579 24.4119 35.1942 23.756C34.5452 22.913 34.7307 22.5382 35.1942 21.7889C35.1942 21.7889 40.5258 14.2012 41.0821 11.6251V11.6251Z" fill="white"/>
</svg>
